<?xml version="1.0" encoding="UTF-8" standalone="no"?>
<svg
   xmlns:dc="http://purl.org/dc/elements/1.1/"
   xmlns:cc="http://creativecommons.org/ns#"
   xmlns:rdf="http://www.w3.org/1999/02/22-rdf-syntax-ns#"
   xmlns:svg="http://www.w3.org/2000/svg"
   xmlns="http://www.w3.org/2000/svg"
   xmlns:xlink="http://www.w3.org/1999/xlink"
   xmlns:sodipodi="http://sodipodi.sourceforge.net/DTD/sodipodi-0.dtd"
   xmlns:inkscape="http://www.inkscape.org/namespaces/inkscape"
   version="1.1"
   preserveAspectRatio="xMidYMid meet"
   viewBox="0 0 640 640"
   width="640"
   height="640"
   id="svg157"
   sodipodi:docname="Strawberry_Milk_Bottle.svg"
   inkscape:version="0.92.2 (5c3e80d, 2017-08-06)"
   inkscape:export-filename="C:\Users\Tejas Mengle\Documents\Projects\Coderdojo\Milk.io\Images\Bottles\Strawberry\Strawberry_Milk_Bottle(1).png"
   inkscape:export-xdpi="96"
   inkscape:export-ydpi="96">
  <metadata
     id="metadata161">
    <rdf:RDF>
      <cc:Work
         rdf:about="">
        <dc:format>image/svg+xml</dc:format>
        <dc:type
           rdf:resource="http://purl.org/dc/dcmitype/StillImage" />
        <dc:title></dc:title>
      </cc:Work>
    </rdf:RDF>
  </metadata>
  <sodipodi:namedview
     pagecolor="#ffffff"
     bordercolor="#666666"
     borderopacity="1"
     objecttolerance="10"
     gridtolerance="10"
     guidetolerance="10"
     inkscape:pageopacity="0"
     inkscape:pageshadow="2"
     inkscape:window-width="1920"
     inkscape:window-height="1017"
     id="namedview159"
     showgrid="false"
     inkscape:zoom="4.7950679"
     inkscape:cx="147.99486"
     inkscape:cy="552.17042"
     inkscape:window-x="-8"
     inkscape:window-y="-8"
     inkscape:window-maximized="1"
     inkscape:current-layer="layer1"
     inkscape:measure-start="0,0"
     inkscape:measure-end="0,0" />
  <defs
     id="defs147">
    <path
       d="M353.76 150.03C360.4 150.03 365.78 155.41 365.78 162.05C365.78 166.16 365.78 166.48 365.78 170.59C365.78 177.23 360.4 182.62 353.76 182.62C326.24 182.62 255.7 182.62 228.18 182.62C221.54 182.62 216.15 177.23 216.15 170.59C216.15 166.48 216.15 166.16 216.15 162.05C216.15 155.41 221.54 150.03 228.18 150.03C255.7 150.03 326.24 150.03 353.76 150.03Z"
       id="aJVw7J5VJ" />
    <path
       id="a62D3sJhzR"
       d="M355.59 320C342.04 301.21 321.28 301.21 293.3 320" />
    <path
       id="eFF2Y53Y8"
       d="M541.6 320C528.05 304.45 507.29 304.45 479.31 320" />
    <path
       id="ghjErmQdJ"
       d="M417.88 320C404.33 304.45 383.57 304.45 355.59 320" />
    <path
       id="a4SDFjoumO"
       d="M479.31 320C465.76 301.21 445 301.21 417.02 320" />
  </defs>
  <g
     id="g239"
     transform="translate(-95.234952,6.3230132)" />
  <g
     inkscape:groupmode="layer"
     id="layer1"
     inkscape:label="Bubbles"
     transform="translate(-95.234952,6.3230132)"
     style="display:inline">
    <path
       style="opacity:1;vector-effect:none;fill:#ff8080;fill-opacity:1;stroke:#ff8080;stroke-width:1.60442173;stroke-linecap:butt;stroke-linejoin:round;stroke-miterlimit:4;stroke-dasharray:none;stroke-dashoffset:0;stroke-opacity:1"
       d="m 57.682242,311.51362 0.257439,-79.25 5.459365,-2.75 c 8.067252,-4.06365 14.202325,-3.63135 19.76262,1.39253 2.058343,1.85978 2.180467,1.85415 7.038744,-0.32441 6.89684,-3.09269 15.87457,-3.1239 20.17943,-0.0702 l 3.16895,2.24797 4.37256,-2.47236 c 4.79869,-2.7133 11.52634,-4.08815 15.34306,-3.13549 1.34707,0.33624 3.79724,1.73937 5.4448,3.11808 l 2.9956,2.50675 4.8748,-2.16643 c 6.76163,-3.00498 16.25,-3.11745 20.13204,-0.23865 l 2.84239,2.10784 0.25744,79.14216 0.25744,79.14217 H 113.74686 57.424804 Z"
       id="path1220"
       inkscape:connector-curvature="0"
       transform="translate(95.234952,-6.3230132)" />
  </g>
  <g
     inkscape:groupmode="layer"
     id="layer3"
     inkscape:label="Bottle">
    <g
       id="g1192"
       style="stroke-width:1.5;stroke-miterlimit:4;stroke-dasharray:none">
      <path
         inkscape:connector-curvature="0"
         id="path316"
         d="M 56.603774,108.67925 V 390.18868"
         style="fill:none;fill-rule:evenodd;stroke:#000000;stroke-width:1.5;stroke-linecap:butt;stroke-linejoin:miter;stroke-miterlimit:4;stroke-dasharray:none;stroke-opacity:1" />
      <path
         style="fill:none;fill-rule:evenodd;stroke:#000000;stroke-width:1.5;stroke-linecap:butt;stroke-linejoin:miter;stroke-miterlimit:4;stroke-dasharray:none;stroke-opacity:1"
         d="M 56.5,109.49057 V 391"
         id="path318"
         inkscape:connector-curvature="0" />
      <path
         style="fill:none;fill-rule:evenodd;stroke:#000000;stroke-width:1.5;stroke-linecap:butt;stroke-linejoin:miter;stroke-miterlimit:4;stroke-dasharray:none;stroke-opacity:1"
         d="M 171.21698,109.49057 V 391"
         id="path318-5"
         inkscape:connector-curvature="0" />
      <path
         inkscape:connector-curvature="0"
         id="path335"
         d="m 56.5,109.49057 c 0,0 -0.650943,-24.962268 30.292453,-25.716985"
         style="fill:none;fill-rule:evenodd;stroke:#000000;stroke-width:1.5;stroke-linecap:butt;stroke-linejoin:miter;stroke-miterlimit:4;stroke-dasharray:none;stroke-opacity:1" />
      <path
         inkscape:connector-curvature="0"
         id="path335-9"
         d="m 171.21698,109.49057 c 0,0 0.65095,-24.962272 -30.29245,-25.716989"
         style="fill:none;fill-rule:evenodd;stroke:#000000;stroke-width:1.5;stroke-linecap:butt;stroke-linejoin:miter;stroke-miterlimit:4;stroke-dasharray:none;stroke-opacity:1" />
      <path
         inkscape:connector-curvature="0"
         id="path352"
         d="M 86.792453,83.773585 V 53.584906"
         style="fill:none;fill-rule:evenodd;stroke:#000000;stroke-width:1.5;stroke-linecap:butt;stroke-linejoin:miter;stroke-miterlimit:4;stroke-dasharray:none;stroke-opacity:1" />
      <path
         inkscape:connector-curvature="0"
         id="path354"
         d="M 140.92453,83.773581 V 54.339623"
         style="fill:#666666;fill-rule:evenodd;stroke:#000000;stroke-width:1.5;stroke-linecap:butt;stroke-linejoin:miter;stroke-miterlimit:4;stroke-dasharray:none;stroke-opacity:1" />
      <path
         inkscape:connector-curvature="0"
         id="path1167"
         d="M 56.5,391 H 171.21698"
         style="fill:none;fill-rule:evenodd;stroke:#000000;stroke-width:1.5;stroke-linecap:butt;stroke-linejoin:miter;stroke-miterlimit:4;stroke-dasharray:none;stroke-opacity:1" />
    </g>
  </g>
  <g
     inkscape:groupmode="layer"
     id="layer2"
     inkscape:label="Lid"
     style="display:inline">
    <g
       id="g155"
       transform="matrix(0.61113928,0,0,0.65263103,-61.194769,-64.865364)">
      <g
         id="g153">
        <g
           id="g151">
          <use
             xlink:href="#aJVw7J5VJ"
             id="use149"
             style="opacity:1;fill:#928e8d;fill-opacity:0.98999999"
             x="0"
             y="0"
             width="100%"
             height="100%" />
        </g>
      </g>
    </g>
  </g>
</svg>
